# Blender v2.79 (sub 0) OBJ File: ''
# www.blender.org
mtllib TestMat.mtl
o Map_Map_MESH.001
v 15.500000 11.000001 -5.999998
v 15.500000 11.000001 -2.999998
v 15.685627 11.494994 -2.999998
v 15.685627 11.494994 -5.999998
v 7.250000 10.999999 6.000002
v 10.500000 10.999999 6.000002
v 10.500000 10.999999 3.000002
v 7.250000 10.999999 3.000002
v 15.500000 10.999999 3.000002
v 14.000000 7.000000 3.000001
v 14.000000 6.999999 6.000001
v 15.500000 10.999999 6.000002
v 14.000000 7.000001 -5.999999
v 9.000000 7.000001 -5.999999
v 9.000000 3.000001 -6.000000
v 14.000000 3.000001 -6.000000
v 14.000000 7.000000 -2.999999
v 14.000000 3.000000 -3.000000
v 9.000000 3.000000 -3.000000
v 9.000000 3.000000 3.000000
v 14.000000 3.000000 3.000000
v 1.000000 4.000000 3.000001
v 9.000000 7.000000 3.000001
v 1.000000 -0.000000 3.000000
v -1.000000 4.000000 -2.999999
v -1.000000 4.000000 3.000001
v -1.000000 -0.000000 3.000000
v -1.000000 0.000000 -3.000000
v 7.250000 12.999999 3.000002
v 7.250000 12.999999 6.000002
v 1.000000 0.000000 -3.000000
v 1.000000 4.000000 -2.999999
v 14.000000 2.999999 6.000000
v 9.000000 2.999999 6.000000
v 9.000000 6.999999 6.000001
v 16.000000 11.494992 6.062875
v 16.000000 11.494992 7.000002
v 16.000000 -1.000001 7.000000
v 14.848744 12.999999 6.757632
v 14.848744 12.999999 6.000002
v 11.250000 12.999999 6.000002
v 14.848744 12.999999 6.868430
v 14.848744 12.999999 7.000002
v 14.848744 12.494888 -5.999998
v 14.848744 13.000001 -5.999998
v 11.250000 13.000001 -5.999998
v 16.000000 11.494994 -3.251491
v 16.000000 11.494994 -6.062871
v 15.685627 11.494992 3.000002
v 14.848743 11.494994 -6.999998
v 16.000000 11.494994 -6.999998
v 16.000000 -0.999999 -7.000000
v -7.000000 13.000001 -6.999998
v 14.848744 13.000001 -6.999998
v 9.000000 7.000000 -2.999999
v 10.500000 11.000001 -2.999998
v 14.848744 11.494992 7.000002
v 15.685627 11.494992 6.000002
v 14.848744 11.494992 6.000002
v 14.848744 13.000001 -6.757628
v 16.000000 11.494992 3.251495
v 14.848744 11.494994 -5.999998
v 10.500000 11.000001 -5.999998
v -7.000000 -1.000001 7.000000
v -7.000000 -0.999999 -7.000000
v 14.848744 12.494886 6.000002
v 14.848744 13.000001 -6.868426
v 7.250000 13.000001 -5.999998
v -7.000000 12.999999 7.000002
v 7.250000 13.000001 -2.999998
v 7.250000 11.000001 -2.999998
v 7.250000 11.000001 -5.999998
vt 0.500000 0.000000
vt -1.000000 0.000000
vt -1.000000 0.247497
vt 0.500000 0.247497
vt 0.125000 0.500000
vt 1.750000 0.500000
vt 1.750000 2.000000
vt 0.125000 2.000000
vt 0.000000 0.000000
vt 0.000000 -2.000000
vt -1.500000 -2.000000
vt -1.500000 0.000000
vt 0.500000 0.000000
vt -2.000000 0.000000
vt -2.000000 -2.000000
vt 0.500000 -2.000000
vt 0.500000 -2.000000
vt -1.000000 -2.000000
vt 0.500000 0.000000
vt -2.000000 0.000000
vt -2.000000 -3.000000
vt 0.500000 -3.000000
vt 0.000000 0.500000
vt 4.000000 2.000000
vt 4.000000 0.000000
vt 0.000000 -1.500000
vt 0.000000 0.500000
vt -3.000000 0.500000
vt -3.000000 -1.500000
vt 0.000000 -1.500000
vt 0.500000 0.000000
vt 2.000000 0.000000
vt 2.000000 1.000000
vt 0.500000 1.000000
vt 0.000000 0.500000
vt 1.000000 0.500000
vt 1.000000 2.500000
vt 0.000000 2.500000
vt 0.500000 0.500000
vt 0.500000 2.000000
vt -2.000000 2.000000
vt -2.000000 0.500000
vt 0.500000 0.000000
vt 2.000000 0.000000
vt 2.000000 2.000000
vt 0.500000 2.000000
vt 0.468564 0.247497
vt 0.000000 0.247497
vt 0.000000 -6.000000
vt 0.924372 0.121185
vt 0.924372 0.500000
vt -0.875000 0.500000
vt 0.125000 0.500000
vt -1.875000 0.500000
vt 1.924372 0.065786
vt 0.924372 0.000000
vt 0.924372 0.065786
vt -2.875000 0.500000
vt 0.924372 0.747444
vt 0.924372 1.000000
vt -0.875000 1.000000
vt 0.500000 0.125746
vt 0.500000 1.531436
vt 0.342813 1.500000
vt 0.342813 0.000000
vt 0.000000 0.000000
vt -3.000000 0.000000
vt -3.000000 0.247497
vt 0.000000 0.247497
vt 0.924372 0.247497
vt 1.500000 0.247497
vt 1.500000 -6.000000
vt 0.000000 0.000000
vt 10.924372 0.000000
vt 10.924372 -0.752503
vt 0.000000 0.000000
vt 0.000000 -2.000000
vt 3.000000 -2.000000
vt 3.000000 0.000000
vt 0.924372 1.000000
vt 1.500000 1.000000
vt 1.342813 1.500000
vt 0.924372 1.500000
vt 0.924372 0.500000
vt 0.924372 0.878815
vt -0.875000 0.500000
vt 0.065786 0.000000
vt -0.000000 -0.752503
vt 0.121185 0.000000
vt 0.500000 0.000000
vt 0.500000 0.468564
vt 0.342813 0.500000
vt 0.874254 0.247497
vt -0.531436 0.247497
vt -1.000000 -6.000000
vt 0.924372 0.000000
vt 0.924372 -0.500000
vt 1.342813 -0.500000
vt 1.500000 0.000000
vt -1.250000 2.000000
vt 0.500000 0.874254
vt 0.500000 4.125746
vt 0.342813 4.000000
vt 0.342813 1.000000
vt 0.750000 0.000000
vt 2.500000 -2.000000
vt 0.000000 -2.000000
vt 0.250000 0.000000
vt -0.500000 -2.000000
vt -2.250000 0.000000
vt -1.875000 1.000000
vt 0.000000 0.500000
vt 1.000000 0.500000
vt 1.000000 -1.500000
vt 0.000000 -1.500000
vt 0.000000 0.000000
vt 0.000000 7.000000
vt 11.500000 7.000000
vt 11.500000 0.000000
vt 0.500000 0.000000
vt -2.000000 0.000000
vt -2.000000 2.000000
vt 0.500000 2.000000
vt 0.500000 0.531436
vt 0.500000 1.000000
vt 0.342813 0.500000
vt 0.000000 0.000000
vt 0.000000 -2.000000
vt 1.500000 -2.000000
vt 1.500000 0.000000
vt 0.125000 0.000000
vt 1.924372 -0.752503
vt 2.250000 -1.000000
vt 0.000000 0.000000
vt 0.000000 3.000000
vt 1.000000 3.000000
vt 1.000000 0.000000
vt 0.000000 -2.000000
vt -3.000000 -2.000000
vt 0.500000 1.874254
vt 0.342813 2.000000
vt 0.125000 0.000000
vt 2.125000 0.000000
vt 1.750000 -1.000000
vt 0.125000 -1.000000
vt 0.924372 0.247497
vt 1.342813 0.247497
vt 1.250000 0.000000
vt 1.924372 -0.252556
vt 0.000000 0.000000
vt 0.000000 6.247497
vt -0.468564 6.247497
vt 0.500000 0.747444
vt 0.121185 1.000000
vt -0.000000 0.247497
vt 0.500000 0.247497
vt 0.500000 1.000000
vt -1.874254 6.247497
vt 0.000000 0.247497
vt -0.121185 1.000000
vt -0.500000 0.747444
vt -0.500000 0.247497
vt 0.000000 0.000000
vt -0.065786 1.000000
vt 0.125000 0.500000
vt 1.924372 0.934214
vt -1.875000 0.500000
vt -10.000000 0.000000
vt 0.878815 0.000000
vt 0.500000 0.000000
vt 0.500000 -0.252556
vt 1.924372 0.121185
vt 0.125000 0.000000
vt 0.125000 1.500000
vt -7.000000 2.000000
vt 0.000000 0.000000
vt 7.125000 0.500000
vt 7.125000 2.000000
vt 1.924372 0.878815
vt 0.000000 1.000000
vt 0.924372 0.000000
vt -2.875000 -0.500000
vt 0.924372 -0.065786
vt 0.250000 0.000000
vt -0.075628 0.247497
vt -1.875000 1.000000
vt 0.924372 0.247497
vt 0.924372 1.000000
vt -10.000000 1.000000
vt 0.000000 0.000000
vt 0.000000 2.000000
vt -4.000000 0.500000
vt -4.000000 -1.500000
vt 1.924372 0.000000
vt 0.500000 0.000000
vt 0.500000 -2.000000
vt 2.000000 -2.000000
vt 2.000000 0.000000
vt 0.500000 0.000000
vt -1.000000 0.000000
vt -1.000000 -2.000000
vt 0.500000 -2.000000
vt 0.500000 0.000000
vt 2.000000 0.000000
vt 2.000000 -2.000000
vt 0.500000 -2.000000
vt 0.500000 0.000000
vt -1.000000 0.000000
vt -1.000000 2.000000
vt 0.500000 2.000000
vt 10.924372 6.247497
vt 0.000000 7.000000
vt 0.125000 0.000000
vt 1.750000 0.000000
vt 1.750000 3.000000
vt 0.125000 3.000000
vt -5.125746 6.247497
vt -7.000000 0.000000
vt 0.125000 0.000000
vt 0.125000 -1.000000
vt 1.750000 -1.000000
vt 2.125000 0.000000
vt -4.000000 0.000000
vt -4.000000 -3.000000
vt 0.000000 -3.000000
vt 0.125000 0.000000
vt 1.750000 0.000000
vt 1.750000 1.500000
vt 0.125000 1.500000
vt 0.000000 -7.000000
vt -7.000000 -7.000000
vt -7.000000 0.000000
vt 0.000000 0.000000
vt 3.000000 0.000000
vt 3.000000 1.000000
vt 0.000000 1.000000
vt 0.000000 0.000000
vt 1.000000 0.000000
vt 1.000000 3.000000
vt 0.000000 3.000000
vt -10.000000 0.000000
vt 0.342813 0.247497
vt 0.924372 0.247497
vt 0.750000 0.000000
vt 2.500000 -2.000000
vt 3.250000 0.000000
vt 1.125000 1.000000
vt -10.000000 -6.000000
vt -10.000000 1.000000
vt 0.500000 0.000000
vt 0.500000 6.247497
vt -0.075628 6.247497
vt -7.000000 -5.000000
vt 0.125000 -3.000000
vt 0.000000 0.000000
vt 3.000000 0.000000
vt 3.000000 -2.000000
vt 0.000000 -2.000000
vt 0.000000 0.000000
vt 1.500000 0.000000
vt 1.500000 1.000000
vt 0.000000 1.000000
vt 0.000000 0.000000
vt -4.000000 0.000000
vt -4.000000 3.000000
vt 0.000000 3.000000
vt -1.500000 0.247497
vt 0.000000 0.247497
vt 0.000000 0.500000
vt 0.000000 -1.000000
vt 2.500000 -1.000000
vt 2.500000 0.500000
vn -0.9363 0.3511 0.0000
vn 0.0000 1.0000 0.0000
vn -0.0000 -0.0000 1.0000
vn 0.0000 0.0000 -1.0000
vn 1.0000 0.0000 0.0000
vn 0.9363 -0.3511 -0.0000
vn 0.0000 -1.0000 -0.0000
vn -1.0000 0.0000 0.0000
vn -0.3511 0.9363 0.0000
vn 0.3511 -0.9363 -0.0000
usemtl Brick0NoiseBlend
s 1
f 1/1/1 2/2/1 3/3/1 4/4/1
f 5/5/2 6/6/2 7/7/2 8/8/2
f 9/9/1 10/10/1 11/11/1 12/12/1
f 13/13/3 14/14/3 15/15/3 16/16/3
f 1/1/1 13/17/1 17/18/1 2/2/1
f 18/19/2 19/20/2 20/21/2 21/22/2
f 22/23/4 23/24/4 20/25/4 24/26/4
f 25/27/5 26/28/5 27/29/5 28/30/5
f 5/31/5 8/32/5 29/33/5 30/34/5
f 28/35/3 31/36/3 32/37/3 25/38/3
f 33/39/2 21/40/2 20/41/2 34/42/2
f 34/43/5 20/44/5 23/45/5 35/46/5
f 36/47/5 37/48/5 38/49/5
f 39/50/2 40/51/2 41/52/2
f 41/53/2 30/54/2 42/55/2
f 43/56/2 42/57/2 30/58/2
f 44/59/3 45/60/3 46/61/3
f 47/62/2 48/63/2 4/64/2 3/65/2
f 2/66/1 9/67/1 49/68/1 3/69/1
f 50/70/4 51/71/4 52/72/4
f 53/73/4 54/74/4 50/75/4
f 7/76/6 23/77/6 55/78/6 56/79/6
f 57/80/2 37/81/2 58/82/2 59/83/2
f 45/84/2 60/85/2 46/86/2
f 42/87/5 57/88/5 39/89/5
f 37/90/2 36/91/2 58/92/2
f 61/93/5 36/94/5 38/95/5
f 50/96/2 62/97/2 4/98/2 51/99/2
f 13/13/3 63/100/3 14/14/3
f 61/101/2 47/102/2 3/103/2 49/104/2
f 6/105/4 11/106/4 35/107/4
f 12/108/4 11/109/4 6/110/4 41/111/4
f 26/112/4 22/113/4 24/114/4 27/115/4
f 64/116/7 65/117/7 52/118/7 38/119/7
f 33/120/4 34/121/4 35/122/4 11/123/4
f 48/124/2 51/125/2 4/126/2
f 56/127/6 55/128/6 14/129/6 63/130/6
f 41/131/4 59/132/4 12/133/4
f 26/134/7 25/135/7 32/136/7 22/137/7
f 2/66/1 17/138/1 10/139/1 9/67/1
f 58/92/2 36/91/2 61/140/2 49/141/2
f 30/142/4 41/143/4 6/144/4 5/145/4
f 59/146/4 58/147/4 12/148/4
f 41/131/4 66/149/4 59/132/4
f 52/150/5 51/151/5 48/152/5
f 66/153/5 39/154/5 57/155/5 59/156/5
f 66/153/5 40/157/5 39/154/5
f 52/150/5 48/152/5 47/158/5
f 50/159/5 60/160/5 44/161/5 62/162/5
f 43/163/5 57/88/5 42/87/5
f 50/159/5 67/164/5 60/160/5
f 46/165/2 67/166/2 68/167/2
f 43/56/2 30/58/2 69/168/2
f 60/169/5 45/170/5 44/171/5
f 41/53/2 42/55/2 39/172/2
f 70/173/2 68/174/2 53/175/2
f 69/176/2 30/177/2 29/178/2
f 46/165/2 60/179/2 67/166/2
f 50/159/5 54/180/5 67/164/5
f 54/181/2 68/182/2 67/183/2
f 1/184/3 62/185/3 46/186/3
f 57/187/3 43/188/3 69/189/3
f 19/190/3 55/191/3 32/192/3 31/193/3
f 41/131/4 40/194/4 66/149/4
f 6/195/6 35/196/6 23/197/6 7/198/6
f 14/199/5 55/200/5 19/201/5 15/202/5
f 11/203/8 10/204/8 21/205/8 33/206/8
f 16/207/8 18/208/8 17/209/8 13/210/8
f 64/116/3 38/119/3 57/211/3 69/212/3
f 8/213/2 7/214/2 56/215/2 71/216/2
f 52/150/5 47/158/5 61/217/5 38/218/5
f 68/219/3 72/220/3 63/221/3 46/222/3
f 19/190/9 31/223/9 24/224/9 20/225/9
f 71/226/2 56/227/2 63/228/2 72/229/2
f 53/73/8 65/230/8 64/231/8 69/232/8
f 8/233/5 71/234/5 70/235/5 29/236/5
f 27/237/2 24/238/2 31/239/2 28/240/2
f 54/181/2 53/241/2 68/182/2
f 1/184/3 4/242/3 62/185/3
f 62/243/3 44/59/3 46/61/3
f 63/244/3 13/245/3 1/246/3 46/247/3
f 50/70/4 52/72/4 65/248/4 53/249/4
f 38/250/3 37/251/3 57/252/3
f 70/173/2 53/175/2 69/253/2 29/254/2
f 10/255/8 17/256/8 18/257/8 21/258/8
f 71/259/5 72/260/5 68/261/5 70/262/5
f 23/263/10 22/264/10 32/265/10 55/266/10
f 9/9/1 12/12/1 58/267/1 49/268/1
f 15/269/2 19/270/2 18/271/2 16/272/2
o Cube_Cube.000
v 8.000000 9.000000 2.000001
v 8.000000 14.000000 0.000002
v 8.000000 14.000000 -1.999998
v 8.000000 9.000000 0.000001
v 17.000000 14.000000 -1.999998
v 17.000000 9.000000 0.000001
v 17.000000 14.000000 0.000002
v 17.000000 9.000000 2.000001
v 17.000000 15.000000 0.000002
v 8.000000 15.000000 0.000002
v 17.000000 15.000000 -1.999997
v 8.000000 15.000000 -1.999997
vt 0.000000 0.000000
vt 1.000000 0.000000
vt 1.000000 1.000000
vt 0.000000 1.000000
vt 0.000000 0.000000
vt 1.000000 0.000000
vt 1.000000 1.000000
vt 0.000000 1.000000
vt 0.000000 0.000000
vt 1.000000 0.000000
vt 1.000000 1.000000
vt 0.000000 1.000000
vt 0.000000 0.000000
vt 1.000000 0.000000
vt 1.000000 1.000000
vt 0.000000 1.000000
vt 1.000000 0.000000
vt 1.000000 1.000000
vt 0.000000 0.000000
vt 1.000000 1.000000
vt 0.000000 1.000000
vt 0.000000 0.000000
vt 1.000000 0.000000
vt 1.000000 1.000000
vt 0.000000 1.000000
vt 0.000000 0.000000
vt 1.000000 1.000000
vt 0.000000 0.000000
vt 1.000000 1.000000
vt 0.000000 1.000000
vt 0.000000 0.000000
vt 0.000000 1.000000
vn -1.0000 0.0000 0.0000
vn 0.0000 -0.3714 -0.9285
vn 1.0000 0.0000 0.0000
vn 0.0000 0.3714 0.9285
vn 0.0000 -1.0000 0.0000
vn 0.0000 -0.0000 1.0000
vn 0.0000 1.0000 0.0000
vn 0.0000 0.0000 -1.0000
usemtl Brick0NoiseBlend
s 1
f 73/273/11 74/274/11 75/275/11 76/276/11
f 76/277/12 75/278/12 77/279/12 78/280/12
f 78/281/13 77/282/13 79/283/13 80/284/13
f 80/285/14 79/286/14 74/287/14 73/288/14
f 76/277/15 78/289/15 80/290/15 73/288/15
f 74/291/16 79/286/16 81/292/16 82/293/16
f 83/294/17 84/295/17 82/296/17 81/297/17
f 79/298/13 77/282/13 83/299/13 81/297/13
f 77/300/18 75/278/18 84/301/18 83/302/18
f 75/303/11 74/274/11 82/296/11 84/304/11
